<?xml version="1.0" standalone="no"?>
<!DOCTYPE svg PUBLIC "-//W3C//DTD SVG 20010904//EN"
 "http://www.w3.org/TR/2001/REC-SVG-20010904/DTD/svg10.dtd">
<svg version="1.0" xmlns="http://www.w3.org/2000/svg"
 width="832.000000pt" height="832.000000pt" viewBox="0 0 832.000000 832.000000"
 preserveAspectRatio="xMidYMid meet">
<metadata>
Created by potrace 1.14, written by Peter Selinger 2001-2017
</metadata>
<g transform="translate(0.000000,832.000000) scale(0.100000,-0.100000)"
fill="#000000" stroke="none">
<path d="M2616 7063 c-2 -2 -25 -5 -52 -8 -27 -3 -92 -14 -144 -25 -52 -11
-108 -23 -125 -26 -48 -8 -185 -54 -240 -79 -70 -32 -93 -59 -126 -151 -16
-43 -32 -86 -36 -94 -3 -8 -7 -17 -7 -20 -1 -3 -11 -30 -23 -60 -57 -145 -186
-496 -186 -507 0 -7 -4 -13 -9 -13 -4 0 -7 -3 -6 -7 2 -8 -33 -108 -52 -148
-5 -11 -18 -45 -29 -75 -26 -75 -80 -222 -88 -240 -3 -8 -7 -19 -9 -25 -1 -5
-37 -104 -79 -220 -43 -115 -78 -214 -80 -220 -1 -5 -5 -17 -9 -25 -12 -29
-271 -790 -280 -825 -2 -5 -6 -17 -9 -25 -3 -8 -34 -103 -68 -210 -34 -107
-65 -198 -68 -203 -4 -4 -25 -9 -47 -12 -21 -2 -84 -13 -139 -24 -55 -11 -111
-22 -125 -25 -14 -3 -50 -12 -80 -21 -30 -8 -66 -17 -80 -20 -21 -4 -192 -46
-240 -60 -28 -7 -80 -24 -88 -27 -28 -12 37 -165 95 -223 51 -51 66 -57 208
-92 11 -2 88 -5 170 -7 85 -1 151 -6 153 -11 1 -6 -11 -50 -27 -100 -97 -299
-175 -541 -176 -545 0 -3 -23 -72 -50 -155 -27 -82 -50 -154 -51 -160 -1 -5
-23 -77 -49 -160 -26 -82 -56 -181 -67 -220 -11 -38 -22 -77 -25 -85 -2 -8 -5
-17 -6 -20 -6 -24 -29 -119 -32 -135 -12 -51 -17 -95 -17 -152 1 -123 53 -171
237 -220 36 -10 248 -12 265 -3 9 5 30 11 46 14 16 2 30 5 32 6 1 2 5 3 10 4
4 1 25 11 47 21 22 10 42 19 45 20 38 10 147 83 199 132 l23 23 -18 72 c-30
118 -25 347 11 518 3 14 10 45 15 70 5 25 12 56 15 70 3 14 7 36 10 50 3 14
19 77 35 140 17 63 33 126 36 140 3 14 12 50 21 80 18 58 19 63 27 95 12 51
177 588 182 594 4 5 21 6 269 26 161 12 262 16 485 21 129 3 244 5 255 4 11
-1 27 -1 35 -1 35 2 368 0 395 -2 27 -2 30 -6 42 -62 6 -33 14 -74 17 -92 3
-18 15 -76 27 -130 12 -54 23 -107 25 -118 8 -41 13 -62 37 -165 14 -58 28
-123 33 -145 4 -22 8 -42 9 -45 1 -3 7 -32 15 -65 7 -33 15 -64 16 -70 1 -5 7
-30 12 -55 6 -25 13 -56 16 -70 11 -48 48 -206 62 -265 8 -33 17 -71 20 -85 3
-14 21 -86 40 -160 20 -74 39 -151 44 -170 33 -136 72 -264 87 -284 24 -32
104 -79 181 -105 186 -63 469 19 624 182 26 28 48 55 48 59 0 5 -9 28 -20 50
-11 23 -20 45 -20 50 0 4 -11 31 -24 60 -58 128 -192 485 -255 683 -24 72 -46
139 -51 150 -6 16 -21 64 -36 120 -2 6 -10 33 -18 60 -8 28 -33 115 -56 195
-23 80 -43 152 -46 160 -19 65 -193 764 -197 791 -2 19 -12 66 -21 104 -9 39
-21 88 -26 110 -5 22 -12 54 -16 70 -4 17 -8 39 -10 50 -1 11 -14 76 -28 145
-15 69 -28 134 -30 145 -2 11 -9 47 -15 80 -6 33 -13 69 -15 80 -12 61 -36
195 -41 230 -3 22 -12 78 -20 125 -7 47 -16 99 -19 115 -10 59 -36 210 -42
240 -3 17 -17 91 -31 165 -28 155 -27 149 -36 175 -3 11 -8 36 -11 55 -3 19
-8 46 -11 60 -3 14 -12 63 -21 110 -9 47 -18 94 -20 105 -4 18 -15 84 -29 160
-3 17 -7 44 -10 60 -3 17 -15 77 -26 135 -22 109 -22 113 -34 195 -3 28 -9 61
-12 75 -3 14 -6 36 -8 50 -2 14 -8 52 -14 85 -6 33 -12 75 -13 93 -5 71 -95
106 -259 100 -50 -2 -92 -4 -93 -5z m-151 -773 c4 -30 9 -64 11 -75 4 -19 12
-69 19 -125 2 -14 6 -35 8 -46 6 -23 11 -56 23 -139 3 -27 8 -59 10 -70 2 -11
6 -38 9 -60 3 -22 7 -51 10 -65 8 -40 26 -151 31 -195 6 -46 11 -79 18 -115 2
-14 8 -47 11 -75 4 -27 9 -61 12 -75 2 -14 6 -36 8 -50 2 -14 8 -52 14 -85 5
-33 12 -78 16 -100 3 -22 10 -65 15 -95 6 -30 12 -71 14 -90 3 -19 7 -48 10
-65 3 -16 8 -50 11 -75 7 -62 14 -101 30 -180 3 -14 8 -45 11 -70 3 -25 8 -56
10 -70 2 -14 6 -36 8 -50 2 -14 7 -38 10 -55 4 -16 9 -43 11 -60 6 -49 16
-107 26 -150 17 -76 39 -70 -269 -70 -237 -1 -513 -9 -682 -20 -67 -5 -201
-16 -233 -20 -15 -2 -26 -1 -23 3 2 4 23 68 46 142 23 74 45 140 48 145 4 6 8
18 9 27 3 22 250 766 262 793 6 11 21 56 35 100 15 44 30 89 35 100 5 11 26
70 46 130 20 61 41 119 45 130 5 11 32 88 60 170 29 83 56 159 61 170 5 11 31
83 58 160 27 77 61 172 76 210 14 39 27 75 29 82 1 7 5 16 9 19 4 4 7 17 7 28
1 38 17 -5 25 -64z"/>
<path d="M5335 7024 c-105 -19 -108 -20 -192 -57 -44 -18 -121 -63 -172 -98
-52 -35 -121 -78 -155 -94 -54 -27 -60 -34 -56 -55 7 -35 4 -552 -3 -695 -4
-66 -9 -174 -12 -240 -2 -66 -7 -178 -10 -250 -3 -71 -8 -188 -10 -260 -2 -71
-7 -193 -10 -270 -11 -301 -16 -457 -20 -635 -7 -228 -13 -400 -30 -765 -20
-432 -27 -691 -27 -1010 1 -239 6 -399 16 -475 2 -19 7 -62 11 -95 9 -78 67
-320 99 -414 46 -131 120 -239 166 -242 8 0 24 -3 35 -5 144 -32 425 43 560
150 91 72 97 83 71 134 -14 28 -84 226 -91 258 -2 11 -22 91 -45 179 -22 88
-43 178 -45 200 -3 22 -8 51 -11 65 -6 28 -8 39 -22 130 -20 124 -25 179 -37
390 -31 536 -34 1034 -10 1425 9 141 16 241 21 290 3 28 7 70 9 95 9 119 16
197 20 220 3 14 7 54 10 90 3 36 8 76 10 90 2 14 7 50 10 80 4 30 10 84 15
119 5 35 9 67 8 70 0 3 0 15 1 26 1 17 3 17 15 5 8 -8 16 -24 18 -35 2 -11 5
-22 8 -25 3 -3 19 -36 34 -75 16 -38 37 -88 47 -110 41 -95 101 -241 103 -251
1 -7 8 -20 16 -30 8 -9 14 -20 12 -23 -1 -3 10 -33 25 -66 15 -33 28 -62 28
-65 1 -3 13 -31 28 -64 15 -32 27 -62 27 -66 0 -4 6 -20 14 -36 36 -76 165
-379 206 -484 18 -46 302 -741 325 -795 7 -16 46 -111 85 -210 40 -99 79 -196
87 -215 24 -56 27 -64 118 -294 48 -121 98 -252 112 -290 13 -39 27 -78 30
-86 3 -8 7 -19 9 -25 2 -5 13 -37 24 -70 12 -33 23 -65 24 -72 1 -7 5 -16 9
-19 4 -4 7 -13 7 -20 0 -7 5 -25 12 -41 6 -15 12 -32 14 -38 1 -5 8 -23 15
-40 6 -16 13 -37 15 -45 6 -28 125 -256 149 -282 23 -27 93 -69 125 -76 37 -8
198 -8 233 0 59 13 125 47 217 112 47 33 90 65 96 71 6 5 22 17 34 25 12 8 36
27 53 42 l32 27 2 668 c2 920 12 1662 28 2223 12 390 14 512 19 920 6 488 13
649 31 740 12 56 15 76 20 105 9 48 54 215 76 280 29 84 75 178 126 259 24 38
42 74 40 80 -6 15 -105 40 -160 40 -42 0 -136 -12 -146 -19 -3 -1 -24 -6 -45
-9 -53 -9 -209 -71 -271 -108 -122 -74 -244 -198 -285 -290 -36 -83 -41 -145
-45 -643 -14 -1676 -25 -2164 -61 -2825 -4 -63 -7 -134 -7 -157 0 -24 -3 -43
-7 -43 -4 0 -17 28 -30 63 -12 34 -26 66 -31 72 -5 5 -9 17 -9 27 0 10 -4 26
-9 36 -13 24 -35 75 -71 167 -17 44 -38 94 -45 110 -35 74 -195 466 -195 475
0 6 -4 10 -10 10 -5 0 -10 6 -10 13 0 11 -81 211 -110 272 -5 11 -26 61 -46
110 -36 91 -55 135 -80 190 -7 17 -29 66 -48 110 -34 80 -185 423 -211 480
-159 350 -562 1384 -600 1540 -1 6 -5 17 -8 25 -10 25 -106 333 -113 363 -3
15 -11 30 -16 33 -19 12 -113 11 -183 -2z"/>
</g>
</svg>
